<svg
  width="36"
  height="48"
  viewBox="0 0 48 48"
  xmlns="http://www.w3.org/2000/svg"
>
  <path
    d="M35.0344 22.1109C35.0156 18.9141 36.4641 16.5047 39.3891 14.7281C37.7531 12.3844 35.2781 11.0953 32.0156 10.8469C28.9266 10.6031 25.5469 12.6469 24.3094 12.6469C23.0016 12.6469 20.0109 10.9313 17.6578 10.9313C12.8016 11.0063 7.64062 14.8031 7.64062 22.5281C7.64062 24.8109 8.05781 27.1688 8.89219 29.5969C10.0078 32.7938 14.0297 40.6266 18.225 40.5C20.4187 40.4484 21.9703 38.9438 24.825 38.9438C27.5953 38.9438 29.0297 40.5 31.4766 40.5C35.7094 40.4391 39.3469 33.3188 40.4062 30.1125C34.7297 27.4359 35.0344 22.275 35.0344 22.1109ZM30.1078 7.81406C32.4844 4.99219 32.2688 2.42344 32.1984 1.5C30.0984 1.62188 27.6703 2.92969 26.2875 4.5375C24.7641 6.2625 23.8687 8.39531 24.0609 10.8C26.3297 10.9734 28.4016 9.80625 30.1078 7.81406Z"
    fill="currentColor"
  ></path>
</svg>
