<svg
  width="24"
  height="30"
  viewBox="0 0 28 30"
  xmlns="http://www.w3.org/2000/svg"
>
  <path
    d="M13.7367 21.3376C13.82 21.4651 13.9332 21.5698 14.0666 21.6422C14.1999 21.7146 14.3491 21.7525 14.5006 21.7525C14.6521 21.7525 14.8011 21.7146 14.9344 21.6422C15.0677 21.5698 15.181 21.4651 15.2642 21.3376L21.3992 14.3054C21.5475 14.1738 21.6502 13.9979 21.6921 13.8033C21.7341 13.6087 21.7133 13.4058 21.6325 13.224C21.5507 13.0407 21.4116 12.8891 21.2368 12.7921C21.062 12.6951 20.8607 12.658 20.6631 12.6864H20.4361C19.3747 12.6864 18.3071 12.7297 17.2458 12.6864C17.1967 11.6112 17.2458 10.536 17.2458 9.46699C17.2458 6.71715 17.2458 3.97344 17.2458 1.22978C17.2526 1.12278 17.2526 1.01551 17.2458 0.90851V0.0310059H11.8534V1.22978C11.8534 4.88799 11.8534 8.5524 11.8534 12.2106C11.8534 12.7173 11.8532 12.7174 11.3624 12.7174H8.41148C8.21476 12.6895 8.01434 12.7265 7.84023 12.8228C7.66611 12.9192 7.52786 13.0697 7.44571 13.2519C7.36355 13.4341 7.34207 13.6381 7.3846 13.8336C7.42712 14.0291 7.53119 14.2055 7.68146 14.3364C9.68146 16.6598 11.6999 18.9936 13.7367 21.3376Z"
    fill="currentColor"
  ></path>
  <path
    d="M27.7421 19.9595C26.7114 19.9595 25.6889 19.9595 24.6746 19.9595C24.4598 19.9595 24.417 20.0274 24.417 20.2313C24.417 21.8627 24.417 23.5003 24.417 25.1316C24.417 25.3479 24.3678 25.4097 24.1408 25.4097H4.8893C4.65617 25.4097 4.6131 25.3356 4.6131 25.1255C4.6131 23.4941 4.6131 21.8628 4.6131 20.2252C4.6131 20.0151 4.55808 19.9595 4.34949 19.9657H1.28201C1.06728 19.9657 0.999677 20.0089 1.00581 20.2375C1.00581 22.4868 1.00581 24.73 1.00581 26.9793C0.974844 27.2552 1.00567 27.5346 1.09628 27.7968C1.18689 28.0591 1.3348 28.2975 1.52914 28.4944C1.72348 28.6913 1.95952 28.8418 2.21933 28.9346C2.47913 29.0275 2.75612 29.0604 3.03023 29.0309H26.0549C26.3127 29.0451 26.5704 29.0045 26.8116 28.9118C27.0528 28.8191 27.2719 28.6763 27.4548 28.4928C27.6376 28.3092 27.7802 28.0889 27.873 27.8462C27.9658 27.6036 28.0067 27.344 27.9934 27.0844C27.9934 24.8021 27.9934 22.5177 27.9934 20.2313C27.9995 20.0027 27.9629 19.9595 27.7421 19.9595Z"
    fill="currentColor"
  ></path>
</svg>
